<svg data-name="Layer 1" xmlns="http://www.w3.org/2000/svg" width="697.28" height="410" viewBox="0 0 697.28 410"><path d="M675.063 347.271c-6.678 23.166-26.176 39.383-46.515 53.158q-4.26 2.886-8.522 5.639c-.02.008-.04.026-.059.035-.137.088-.274.176-.401.264-.587.378-1.173.757-1.755 1.13l.32.144s.313.167-.03.026c-.102-.042-.21-.08-.311-.124-11.816-4.765-23.841-9.882-32.896-18.809-9.393-9.27-14.883-23.81-9.796-35.989a23.252 23.252 0 012.517-4.519 25.29 25.29 0 011.32-1.71 24.923 24.923 0 0142.806 7.574c1.494-13.913-9.978-25.567-21.018-34.166-11.045-8.594-23.595-17.954-25.73-31.79-1.193-7.697 1.484-15.157 6.36-21.146.151-.182.302-.363.458-.54a36.373 36.373 0 0123.378-12.542c16.936-1.76 33.387 7.204 45.69 18.98 19.803 18.945 31.775 48.046 24.184 74.385z" fill="#f2f2f2"/><path d="M643.229 316.97a61.832 61.832 0 017.408 16.339 53.69 53.69 0 011.856 15.857 68.79 68.79 0 01-9.01 31.306 99.005 99.005 0 01-14.935 19.957q-4.26 2.886-8.522 5.639c-.02.008-.04.026-.059.035-.137.088-.274.176-.401.264-.587.378-1.173.757-1.755 1.13 0 0 .633.31.29.17-.102-.042-.21-.08-.311-.124a54.728 54.728 0 00-17.512-47.122 55.196 55.196 0 00-22.663-12.195 25.29 25.29 0 011.32-1.71 57.229 57.229 0 019.446 3.575 56.075 56.075 0 0125.354 24.444 57.33 57.33 0 016.242 31.46c.486-.44.972-.89 1.443-1.335 8.979-8.371 16.954-17.98 22.35-29.068a63.995 63.995 0 006.702-30.279c-.44-11.437-4.998-22.032-11.596-31.254a133.955 133.955 0 00-25.392-26.17 152.212 152.212 0 00-31.58-19.496 1.094 1.094 0 01-.55-1.405.93.93 0 01.457-.54.81.81 0 01.703.03c1.393.64 2.777 1.29 4.149 1.969a153.94 153.94 0 0131.805 20.98c9.362 7.982 18.175 17.1 24.761 27.544z" fill="#fff"/><path d="M404.389 209.912a10.056 10.056 0 005.277-14.488l23.359-27.044-18.415-2.397-19.358 26.049a10.11 10.11 0 009.137 17.88zm131.664 5.714a10.056 10.056 0 00-2.362-15.237l7.425-34.955-17.289 6.779-4.4 32.154a10.11 10.11 0 0016.626 11.26zm-83.664 182.173l-12.26-.001-5.832-47.288 18.094.001-.002 47.288z" fill="#ffb8b8"/><path d="M455.515 409.683l-39.53-.002v-.5a15.386 15.386 0 0115.386-15.386h.001l24.144.001z" fill="#2f2e41"/><path fill="#ffb8b8" d="M512.389 397.799l-12.26-.001-5.832-47.288 18.094.001-.002 47.288z"/><path d="M515.515 409.683l-39.53-.002v-.5a15.386 15.386 0 0115.386-15.386h.001l24.144.001zm-61.849-36.577l-17.355-.694a4.514 4.514 0 01-4.317-4.634l4.889-160.379.32-.115c30.416-11.003 55.578-10.17 76.925 2.54l.24.143 2.928 156.202a4.5 4.5 0 01-4.5 4.585h-14.633a4.51 4.51 0 01-4.416-3.632l-19.935-101.41a1.5 1.5 0 00-2.96.11l-12.539 103.33a4.526 4.526 0 01-4.47 3.957c-.058 0-.117 0-.177-.003z" fill="#2f2e41"/><circle cx="470.55" cy="42.191" r="24.561" fill="#ffb8b8"/><path d="M412.69 190.39a4.506 4.506 0 01-2.091-1.686l-4.746-7.101a4.515 4.515 0 01.119-5.17l19.132-25.967 11.986-57.511a14.497 14.497 0 1127.017 10.52l-5.665 36.601a46.374 46.374 0 01-16.024 28.44l-25.185 21.135a4.505 4.505 0 01-3.528 1.008 4.454 4.454 0 01-1.016-.269zm122.314 2.606a4.506 4.506 0 01-2.683.116l-8.254-2.195a4.515 4.515 0 01-3.326-3.96l-2.797-32.132-29.002-51.09a14.497 14.497 0 1127.231-9.953l19.931 31.217a46.373 46.373 0 016.764 31.936l-4.941 32.504a4.505 4.505 0 01-1.983 3.088 4.455 4.455 0 01-.94.469z" fill="#6c63ff"/><path d="M443.685 85.808a41.822 41.822 0 0133.537-13.56q.616.039 1.227.086a41.734 41.734 0 0130.16 16.647 42.362 42.362 0 017.525 34.145 132.361 132.361 0 003.497 67.876l6.589 20.459a4.499 4.499 0 01-4.042 5.872l-33.685 1.81-8.62-14.89v15.354l-40.941 2.201a4.067 4.067 0 01-.244.007 4.5 4.5 0 01-4.483-4.861l4.627-57.382-5.804-38.973a42.09 42.09 0 0110.657-34.79z" fill="#6c63ff"/><path d="M487.62 65.638c-2.274 1.308-11.263 2.176-11.903-.368l-.014-.056c-.446-1.864-.076-3.811.052-5.723s-.059-4.014-1.361-5.42c-2.428-2.62-6.748-1.231-10.259-1.894a8.664 8.664 0 01-6.74-9.253c.05-.398.129-.796.216-1.193a6.673 6.673 0 00-6.926-8.082c-3.548.203-7.378 1.278-10.314-1.35-2.27-2.032-2.824-7.322-1.826-10.201 1.676-4.838 12.413-7.371 17.101-8.764a40.62 40.62 0 0134.43 5.65c2.962 2.087 5.727 4.71 6.99 8.106s.653 7.68-2.193 9.922a18.332 18.332 0 014.246 17.806c-1.406 4.53-8.115 8.872-11.5 10.82z" fill="#2f2e41"/><path d="M266 138H45a1 1 0 010-2h221a1 1 0 010 2z" fill="#e6e6e6"/><path d="M217.598 138H92a1 1 0 010-2h125.598a1 1 0 010 2z" fill="#3f3d56"/><path d="M156 138a1 1 0 01-1-1V74a1 1 0 012 0v63a1 1 0 01-1 1zm63 0a1 1 0 01-1-1V11a1 1 0 012 0v126a1 1 0 01-1 1z" fill="#3f3d56"/><circle cx="11" cy="11" r="11" fill="#e6e6e6"/><circle cx="11" cy="74" r="11" fill="#e6e6e6"/><circle cx="11" cy="137" r="11" fill="#e6e6e6"/><path d="M266 12H45a1 1 0 010-2h221a1 1 0 010 2zm0 63H45a1 1 0 010-2h221a1 1 0 010 2z" fill="#e6e6e6"/><circle cx="92.5" cy="137" r="11" fill="#6c63ff"/><circle cx="156" cy="74" r="11" fill="#6c63ff"/><circle cx="156" cy="137" r="11" fill="#6c63ff"/><circle cx="219" cy="11" r="11" fill="#6c63ff"/><circle cx="219" cy="74" r="11" fill="#6c63ff"/><circle cx="219" cy="137" r="11" fill="#6c63ff"/><path d="M696.28 410h-439a1 1 0 010-2h439a1 1 0 010 2z" fill="#3f3d56"/><path d="M325 321.053q-.994-.052-2-.053a38 38 0 00-38 38h40z" fill="#6c63ff"/><path d="M333 410a39.044 39.044 0 01-39-39 1 1 0 011-1h39v-36.947a.998.998 0 01.312-.725.98.98 0 01.74-.274A39 39 0 01333 410zm-36.987-38A37 37 0 10336 334.12V371a1 1 0 01-1 1z" fill="#3f3d56"/></svg>